<svg width="256" height="256" viewBox="0 0 256 256" fill="none" xmlns="http://www.w3.org/2000/svg">
<path d="M70.6207 188.656H26.4828V179.677H61.7931V161.719H70.6207V188.656Z" fill="#5284B3"/>
<path d="M61.7931 161.719H29.0692L15.8279 148.25H0V139.271H19.4825L32.7239 152.74H61.7931V161.719Z" fill="#5284B3"/>
<path d="M79.4483 211.104H52.9655V220.083H79.4483V211.104Z" fill="#5284B3"/>
<path d="M114.759 242.531H105.931V195.777L114.759 186.798V157.229H123.586V190.515L114.759 199.494V242.531Z" fill="#5284B3"/>
<path d="M107.224 200.81L88.2759 181.536V125.802H97.1035V177.819L113.465 194.461L107.224 200.81Z" fill="#5284B3"/>
<path d="M70.6207 125.802H61.7931V152.74H70.6207V125.802Z" fill="#5284B3"/>
<path d="M196.034 170.698H163.31V161.719H192.38L205.621 148.25H238.345V157.229H209.276L196.034 170.698Z" fill="#5284B3"/>
<path d="M189.793 229.063H180.966V193.146H220.69V202.125H189.793V229.063Z" fill="#5284B3"/>
<path d="M154.483 238.042H145.655V200.266L154.483 191.287V170.698H163.31V195.005L154.483 203.984V238.042Z" fill="#5284B3"/>
<path d="M163.31 161.719H154.483V141.902L177.845 118.139L184.086 124.487L163.31 145.619V161.719Z" fill="#5284B3"/>
<path d="M247.172 125.802H238.345V148.25H247.172V125.802Z" fill="#5284B3"/>
<path d="M123.586 125.802H114.759V148.25H123.586V125.802Z" fill="#5284B3"/>
<path d="M66.2069 166.209C71.0822 166.209 75.0345 162.188 75.0345 157.229C75.0345 152.27 71.0822 148.25 66.2069 148.25C61.3316 148.25 57.3793 152.27 57.3793 157.229C57.3793 162.188 61.3316 166.209 66.2069 166.209Z" fill="#5284B3"/>
<path d="M119.172 161.719C124.048 161.719 128 157.699 128 152.74C128 147.781 124.048 143.761 119.172 143.761C114.297 143.761 110.345 147.781 110.345 152.74C110.345 157.699 114.297 161.719 119.172 161.719Z" fill="#5284B3"/>
<path d="M158.897 175.188C163.772 175.188 167.724 171.168 167.724 166.209C167.724 161.249 163.772 157.229 158.897 157.229C154.021 157.229 150.069 161.249 150.069 166.209C150.069 171.168 154.021 175.188 158.897 175.188Z" fill="#5284B3"/>
<path d="M150.069 251.51C154.944 251.51 158.897 247.49 158.897 242.531C158.897 237.572 154.944 233.552 150.069 233.552C145.194 233.552 141.241 237.572 141.241 242.531C141.241 247.49 145.194 251.51 150.069 251.51Z" fill="#5284B3"/>
<path d="M242.759 161.719C247.634 161.719 251.586 157.699 251.586 152.74C251.586 147.781 247.634 143.761 242.759 143.761C237.883 143.761 233.931 147.781 233.931 152.74C233.931 157.699 237.883 161.719 242.759 161.719Z" fill="#5284B3"/>
<path d="M225.103 206.615C229.979 206.615 233.931 202.595 233.931 197.636C233.931 192.676 229.979 188.656 225.103 188.656C220.228 188.656 216.276 192.676 216.276 197.636C216.276 202.595 220.228 206.615 225.103 206.615Z" fill="#5284B3"/>
<path d="M185.379 242.531C190.255 242.531 194.207 238.511 194.207 233.552C194.207 228.593 190.255 224.573 185.379 224.573C180.504 224.573 176.552 228.593 176.552 233.552C176.552 238.511 180.504 242.531 185.379 242.531Z" fill="#5284B3"/>
<path d="M110.345 256C115.22 256 119.172 251.98 119.172 247.021C119.172 242.062 115.22 238.042 110.345 238.042C105.469 238.042 101.517 242.062 101.517 247.021C101.517 251.98 105.469 256 110.345 256Z" fill="#5284B3"/>
<path d="M22.069 193.146C26.9443 193.146 30.8965 189.126 30.8965 184.167C30.8965 179.208 26.9443 175.188 22.069 175.188C17.1936 175.188 13.2414 179.208 13.2414 184.167C13.2414 189.126 17.1936 193.146 22.069 193.146Z" fill="#5284B3"/>
<path d="M48.5517 224.573C53.4271 224.573 57.3793 220.553 57.3793 215.594C57.3793 210.635 53.4271 206.615 48.5517 206.615C43.6764 206.615 39.7241 210.635 39.7241 215.594C39.7241 220.553 43.6764 224.573 48.5517 224.573Z" fill="#5284B3"/>
<path d="M83.8621 224.573C88.7374 224.573 92.6897 220.553 92.6897 215.594C92.6897 210.635 88.7374 206.615 83.8621 206.615C78.9867 206.615 75.0345 210.635 75.0345 215.594C75.0345 220.553 78.9867 224.573 83.8621 224.573Z" fill="#5284B3"/>
<path d="M183.115 31.1756C172.403 17.1367 159.311 7.08902 144.861 2.64883C149.985 10.326 154.284 21.4242 157.718 34.6864C166.846 33.8559 175.347 32.6571 183.115 31.1756Z" fill="#5284B3"/>
<path d="M156.615 79.7797C155.215 66.3693 153.242 54.463 150.916 44.1864C143.316 44.7161 135.627 44.99 128 44.99C120.373 44.99 112.684 44.7161 105.088 44.1864C102.762 54.463 100.789 66.3738 99.3898 79.7797C108.681 80.5115 118.246 80.9066 128 80.9066C137.754 80.9066 147.319 80.5115 156.615 79.7797Z" fill="#5284B3"/>
<path d="M94.9804 0C77.4268 4.75446 61.365 13.2083 47.6337 24.4951C52.3741 26.1922 57.6706 27.768 63.5277 29.1733C72.4657 16.571 83.1514 6.5907 94.9804 0Z" fill="#5284B3"/>
<path d="M128 89.8857C117.91 89.8857 108.085 89.4862 98.5644 88.7589C97.6331 100.185 97.1035 112.549 97.1035 125.802H158.897C158.897 112.549 158.367 100.185 157.436 88.7589C147.915 89.4862 138.09 89.8857 128 89.8857Z" fill="#5284B3"/>
<path d="M72.885 31.1756C80.6533 32.6616 89.1542 33.8559 98.2819 34.6864C101.716 21.4242 106.015 10.326 111.139 2.64434C96.693 7.08453 83.5973 17.1367 72.885 31.1756Z" fill="#5284B3"/>
<path d="M90.6725 78.9941C91.9879 66.4098 93.8328 54.3687 96.203 43.4501C86.1661 42.4714 76.416 41.0347 67.3368 39.1401C61.1134 48.9274 55.9228 60.2007 52.0474 72.5829C64.0088 75.3889 76.9898 77.5754 90.6725 78.9941Z" fill="#5284B3"/>
<path d="M128 36.0109C135.177 36.0109 142.089 35.7819 148.727 35.3734C142.548 12.6696 134.607 0.0942841 128 0.0942841C121.393 0.0942841 113.452 12.6696 107.273 35.3734C113.911 35.7819 120.823 36.0109 128 36.0109Z" fill="#5284B3"/>
<path d="M12.672 69.2562C4.55503 86.3569 0 105.536 0 125.802H35.3103C35.3103 109.429 37.3363 93.7288 41.035 79.2006C30.645 76.3676 21.1553 73.0184 12.672 69.2562Z" fill="#5284B3"/>
<path d="M166.17 87.9911C167.199 100.396 167.724 113.173 167.724 125.802H211.862C211.862 110.161 209.933 95.1924 206.433 81.369C193.999 84.3007 180.493 86.5455 166.17 87.9911Z" fill="#5284B3"/>
<path d="M215.883 31.1935C210.397 33.4114 204.262 35.3733 197.641 37.0659C203.648 47.0103 208.662 58.2387 212.462 70.4369C222.23 67.7881 231.194 64.7082 239.153 61.2692C232.872 50.0991 225.015 39.9707 215.883 31.1935Z" fill="#5284B3"/>
<path d="M214.965 79.2006C218.664 93.7288 220.69 109.429 220.69 125.802H256C256 105.536 251.445 86.3569 243.328 69.2562C234.845 73.0184 225.355 76.3676 214.965 79.2006Z" fill="#5284B3"/>
<path d="M188.663 39.1446C179.584 41.0392 169.834 42.4759 159.797 43.4546C162.167 54.3687 164.012 66.4143 165.327 78.9985C179.015 77.5798 191.991 75.3934 203.953 72.5919C200.077 60.2052 194.891 48.9319 188.663 39.1446Z" fill="#5284B3"/>
<path d="M161.02 0C172.849 6.59069 183.534 16.571 192.472 29.1688C198.329 27.768 203.626 26.1877 208.366 24.4906C194.639 13.2128 178.573 4.75895 161.02 0Z" fill="#5284B3"/>
<path d="M89.8295 87.9911C75.5068 86.5455 62.0006 84.3007 49.5669 81.369C46.0668 95.1924 44.1379 110.161 44.1379 125.802H88.2759C88.2759 113.173 88.8011 100.396 89.8295 87.9911Z" fill="#5284B3"/>
<path d="M58.3592 37.0659C51.7429 35.3733 45.6033 33.4114 40.117 31.1935C30.9849 39.9751 23.1283 50.1036 16.8475 61.2737C24.8055 64.7127 33.77 67.7925 43.5377 70.4414C47.338 58.2387 52.352 47.0103 58.3592 37.0659Z" fill="#5284B3"/>
</svg>
